# 3ds Max Wavefront OBJ Exporter v0.97b - (c)2007 guruware
# File Created: 02.07.2017 17:39:46

mtllib llave.mtl

#
# object llave
#

v  0.9840 0.2082 -1.8115
v  0.9840 0.8193 -1.8115
v  -0.6265 0.8193 -2.0729
v  -0.6265 0.2082 -2.0729
v  2.7167 0.2082 -2.9301
v  2.7167 0.8193 -2.9301
v  2.5945 0.8193 -2.0729
v  2.5945 0.2082 -2.0729
v  0.9840 0.2082 -5.7632
v  0.9840 0.8193 -5.7632
v  2.5945 0.8193 -5.5018
v  2.5945 0.2082 -5.5018
v  -0.8708 0.2082 -3.7873
v  -0.8708 0.8193 -3.7873
v  -0.6265 0.8193 -5.5018
v  -0.6265 0.2082 -5.5018
v  -0.2761 0.2082 -3.7873
v  -0.1310 0.2082 -2.6477
v  0.9840 0.2082 -5.0734
v  -0.1310 0.2082 -4.9270
v  2.7167 0.2082 -4.6446
v  2.1716 0.2082 -4.3572
v  2.0990 0.2082 -4.9270
v  0.9840 0.2082 -2.5013
v  2.0990 0.2082 -2.6477
v  0.9840 0.8193 -2.5013
v  -0.1310 0.8193 -2.6477
v  2.1716 0.8193 -3.2175
v  2.0990 0.8193 -2.6477
v  0.9840 0.8193 -5.0734
v  2.0990 0.8193 -4.9270
v  -0.2761 0.8193 -3.7873
v  -0.1310 0.8193 -4.9270
v  2.1716 0.2082 -3.2175
v  2.8388 0.2082 -3.7873
v  2.2441 0.2082 -3.7873
v  2.8388 0.8193 -3.7873
v  2.7167 0.8193 -4.6446
v  2.1716 0.8193 -4.3572
v  2.2441 0.8193 -3.7873
v  7.3100 0.3332 -4.1548
v  7.3100 0.3399 -3.7518
v  6.5246 0.3399 -3.7656
v  6.5246 0.3332 -4.1688
v  7.3100 0.6675 -4.1548
v  6.5246 0.6675 -4.1688
v  6.5246 0.6810 -3.3623
v  7.3100 0.6810 -3.3488
v  7.3100 0.6743 -3.7518
v  6.5246 0.6743 -3.7656
v  8.7424 0.3332 -4.1072
v  8.7424 0.3399 -3.7044
v  8.0429 0.3399 -3.7385
v  8.0429 0.3332 -4.1413
v  5.8454 0.3509 -3.3747
v  5.8454 0.3443 -3.7715
v  6.5246 0.3467 -3.3623
v  8.7424 0.6675 -4.1072
v  8.0429 0.6675 -4.1413
v  8.0429 0.6810 -3.3358
v  8.7424 0.6810 -3.3016
v  8.7424 0.6743 -3.7044
v  8.0429 0.6743 -3.7385
v  5.8454 0.6646 -4.1683
v  5.8454 0.6712 -3.7715
v  8.0429 0.3467 -3.3358
v  7.3100 0.3467 -3.3488
v  5.8454 0.6778 -3.3747
v  7.1008 0.4275 -3.3501
v  6.7337 0.4275 -3.3609
v  7.1008 0.6002 -3.3501
v  6.7337 0.6002 -3.3609
v  8.7424 0.3467 -3.3016
v  8.5510 0.6002 -3.3055
v  8.5510 0.4275 -3.3055
v  8.2344 0.6002 -3.3318
v  8.2344 0.4275 -3.3318
v  7.1008 0.4275 -2.1037
v  6.7337 0.4275 -2.1145
v  7.1008 0.6002 -2.1037
v  6.7337 0.6002 -2.1145
v  8.5510 0.6002 -2.0591
v  8.5510 0.4275 -2.0591
v  8.2344 0.6002 -2.0854
v  8.2344 0.4275 -2.0854
v  7.4886 0.4140 -4.1533
v  7.8644 0.4140 -4.1428
v  7.4886 0.5867 -4.1533
v  7.8644 0.5867 -4.1428
v  7.4886 0.4140 -5.1576
v  7.8644 0.4140 -5.1471
v  7.4886 0.5867 -5.1576
v  7.8644 0.5867 -5.1471
v  6.3718 0.4145 -4.1718
v  6.3718 0.5863 -4.1718
v  5.8454 0.3377 -4.1683
v  5.9982 0.4180 -4.1912
v  5.9982 0.5841 -4.1912
v  6.3718 0.4145 -5.1953
v  6.3718 0.5863 -5.1953
v  5.9982 0.4180 -5.2147
v  5.9982 0.5841 -5.2147
v  2.8388 0.2890 -3.7873
v  2.7281 0.2890 -3.3856
v  2.7281 0.2890 -4.1890
v  2.7281 0.7385 -4.1890
v  2.8388 0.7385 -3.7873
v  2.7281 0.7385 -3.3856
# 108 vertices

vn 0.0000 0.0000 1.0000
vn -0.1602 0.0000 0.9871
vn 0.9900 -0.0000 0.1410
vn 0.9900 0.0000 0.1410
vn 0.0000 0.0000 -1.0000
vn -0.0000 0.0000 -1.0000
vn 0.1602 0.0000 -0.9871
vn -1.0000 0.0000 0.0000
vn -0.9900 0.0000 -0.1410
vn 0.0000 -1.0000 -0.0000
vn 0.0000 1.0000 -0.0000
vn 0.1302 0.0000 -0.9915
vn -0.9920 -0.0000 -0.1263
vn -0.9920 0.0000 -0.1263
vn -0.1302 0.0000 0.9915
vn 1.0000 0.0000 0.0000
vn 1.0000 0.0000 -0.0000
vn 0.9920 0.0000 0.1263
vn -0.9900 0.0000 0.1410
vn -0.9920 0.0000 0.1263
vn -1.0000 -0.0000 0.0000
vn 0.9920 0.0000 -0.1263
vn 0.1602 0.0000 0.9871
vn -0.1602 0.0000 -0.9871
vn -0.1302 0.0000 -0.9915
vn 0.1302 0.0000 0.9915
vn -0.0003 -0.9999 0.0168
vn 0.0179 0.0000 -0.9998
vn 0.0003 0.9999 -0.0168
vn -0.0008 -0.9999 0.0168
vn -0.0066 -0.9998 0.0167
vn 0.0487 0.0000 -0.9988
vn 0.0008 0.9999 -0.0168
vn -0.0044 0.9999 -0.0167
vn -0.0177 0.0000 0.9998
vn -0.0182 0.0000 0.9998
vn -0.0211 -0.0000 0.9998
vn -0.0067 0.0000 1.0000
vn -0.0211 0.0000 0.9998
vn -0.0206 0.0000 0.9998
vn -0.0594 -0.0000 0.9982
vn -0.0594 0.0000 0.9982
vn -1.0000 0.0000 -0.0000
vn -0.0294 0.0000 0.9996
vn -0.0828 0.0000 0.9966
vn 0.0216 -0.0000 -0.9998
vn 0.0083 0.0000 -1.0000
vn 0.0216 0.0000 -0.9998
vn 0.0279 0.0000 -0.9996
vn 0.0197 0.0000 -0.9998
vn 0.0164 -0.1578 -0.9873
vn -0.1478 0.0000 -0.9890
vn 0.0169 0.1578 -0.9873
vn -0.0093 -1.0000 -0.0000
vn -0.0060 1.0000 -0.0000
vn 0.0516 0.0000 -0.9987
vn 0.9900 0.0000 -0.1410
vn 0.8990 0.4051 0.1663
vn 0.8990 0.4051 -0.1663
vn 0.9997 0.0000 -0.0250
vn 0.8990 -0.4051 -0.1663
vn 0.8990 -0.4051 0.1663
vn 0.9997 -0.0000 0.0250
vn 0.0169 -0.9998 0.0059
vn 0.0066 0.0000 -1.0000
vn 0.0209 0.9998 -0.0054
vn -0.0035 0.0000 1.0000
vn -0.0067 -0.9998 0.0167
vn 0.0191 -0.9998 0.0109
vn 0.0231 0.9997 -0.0115
# 70 vertex normals

vt 0.5000 0.0000 0.0000
vt 0.5000 1.0000 0.0000
vt 0.0000 1.0000 0.0000
vt 0.0000 0.0000 0.0000
vt 0.2500 0.0000 0.0000
vt 0.2500 1.0000 0.0000
vt 1.0000 0.5000 0.0000
vt 1.0000 0.0000 0.0000
vt 1.0000 1.0000 0.0000
vt 0.0000 0.7500 0.0000
vt 1.0000 0.2500 0.0000
vt 0.0000 0.5000 0.0000
vt 0.5000 0.5000 0.0000
vt 0.7500 0.2500 0.0000
vt 0.7500 1.0000 0.0000
vt 0.0000 0.2500 0.0000
vt 1.0000 0.7500 0.0000
vt 0.2500 0.7500 0.0000
vt 0.7500 0.0000 0.0000
vt 0.5000 0.7500 0.0000
vt 0.2500 0.5000 0.0000
# 21 texture coords

g llave
usemtl wire_177027088
s 8
f 1/1/1 2/2/1 3/3/2 4/4/2 
s 16
f 5/5/3 6/6/3 7/3/3 8/4/4 
s 32
f 9/1/5 10/2/6 11/3/7 12/4/7 
s 64
f 13/1/8 14/2/8 15/3/9 16/4/9 
s off
f 13/7/10 17/7/10 18/8/10 4/8/10 
f 9/2/10 19/2/10 20/9/10 16/9/10 
f 21/10/10 22/10/10 23/3/10 12/3/10 
f 1/1/10 24/1/10 25/4/10 8/4/10 
f 2/1/11 26/1/11 27/4/11 3/4/11 
f 6/11/11 28/11/11 29/8/11 7/8/11 
f 10/2/11 30/2/11 31/9/11 11/9/11 
f 14/12/11 32/12/11 33/3/11 15/3/11 
s 1
f 26/1/6 24/13/5 18/4/12 27/4/12 
s 2
f 28/14/13 34/15/13 25/9/13 29/8/14 
s 1
f 30/2/1 19/13/1 23/3/15 31/3/15 
s 2
f 32/13/16 17/1/17 20/8/18 33/9/18 
s 64
f 4/8/19 3/9/19 14/2/8 13/1/8 
s off
f 13/7/10 16/9/10 20/9/10 17/7/10 
f 35/12/10 5/16/10 34/16/10 36/12/10 
f 37/7/11 38/17/11 39/17/11 40/7/11 
f 14/12/11 3/4/11 27/4/11 32/12/11 
s 2
f 39/18/20 22/6/20 36/2/8 40/13/21 
f 27/4/22 18/4/22 17/1/17 32/13/16 
s 8
f 8/8/23 7/9/23 2/2/1 1/1/1 
s 32
f 16/8/24 15/9/24 10/2/6 9/1/5 
s off
f 9/2/10 12/3/10 23/3/10 19/2/10 
f 1/1/10 4/8/10 18/8/10 24/1/10 
f 2/1/11 7/8/11 29/8/11 26/1/11 
f 10/2/11 15/3/11 33/3/11 30/2/11 
s 1
f 29/8/25 25/9/25 24/13/5 26/1/6 
f 33/9/26 20/8/26 19/13/1 30/2/1 
s off
f 41/8/27 42/19/27 43/19/27 44/8/27 
f 45/9/28 41/8/28 44/8/28 46/9/28 
f 47/2/29 48/2/29 49/15/29 50/15/29 
f 51/8/30 52/19/30 53/19/30 54/8/30 
f 54/8/27 53/19/27 42/19/27 41/8/27 
f 55/1/31 56/19/31 43/19/31 57/1/31 
f 58/9/32 51/8/32 54/8/32 59/9/32 
f 60/2/33 61/2/33 62/15/33 63/15/33 
f 48/2/29 60/2/29 63/15/29 49/15/29 
f 46/9/34 64/9/34 65/15/34 50/15/34 
f 66/1/35 60/2/35 48/2/35 67/1/35 
f 68/2/36 55/1/36 57/1/36 47/2/36 
f 57/1/37 67/1/37 69/1/37 70/1/37 
f 67/1/38 48/2/38 71/2/38 69/1/38 
f 48/2/39 47/2/39 72/2/39 71/2/39 
f 47/2/38 57/1/38 70/1/38 72/2/38 
f 73/1/40 61/2/40 74/2/40 75/1/40 
f 61/2/41 60/2/41 76/2/41 74/2/41 
f 60/2/40 66/1/40 77/1/40 76/2/40 
f 66/1/42 73/1/42 75/1/42 77/1/42 
f 70/1/10 69/1/10 78/1/10 79/1/10 
f 69/1/17 71/2/17 80/2/17 78/1/17 
f 71/2/11 72/2/11 81/2/11 80/2/11 
f 72/2/43 70/1/43 79/1/43 81/2/43 
f 75/1/17 74/2/17 82/2/17 83/1/17 
f 74/2/11 76/2/11 84/2/11 82/2/11 
f 76/2/43 77/1/43 85/1/43 84/2/43 
f 77/1/10 75/1/10 83/1/10 85/1/10 
f 80/2/44 81/2/44 79/1/44 78/1/44 
f 84/2/45 85/1/45 83/1/45 82/2/45 
f 58/9/17 62/15/17 52/19/17 51/8/17 
f 54/8/46 41/8/46 86/8/46 87/8/46 
f 41/8/47 45/9/47 88/9/47 86/8/47 
f 45/9/48 59/9/48 89/9/48 88/9/48 
f 59/9/47 54/8/47 87/8/47 89/9/47 
f 87/8/10 86/8/10 90/8/10 91/8/10 
f 86/8/43 88/9/43 92/9/43 90/8/43 
f 88/9/11 89/9/11 93/9/11 92/9/11 
f 89/9/17 87/8/17 91/8/17 93/9/17 
f 92/9/49 93/9/49 91/8/49 90/8/49 
f 46/9/50 44/8/50 94/8/50 95/9/50 
f 44/8/51 96/8/51 97/8/51 94/8/51 
f 96/8/52 64/9/52 98/9/52 97/8/52 
f 64/9/53 46/9/53 95/9/53 98/9/53 
f 95/9/17 94/8/17 99/8/17 100/9/17 
f 94/8/54 97/8/54 101/8/54 99/8/54 
f 97/8/43 98/9/43 102/9/43 101/8/43 
f 98/9/55 95/9/55 100/9/55 102/9/55 
f 101/8/56 102/9/56 100/9/56 99/8/56 
f 11/3/57 38/20/57 21/21/57 12/3/57 
f 35/12/10 36/12/10 22/10/10 21/10/10 
f 37/7/11 40/7/11 28/11/11 6/11/11 
s 2
f 40/13/21 36/2/8 34/15/13 28/14/13 
s off
f 5/16/10 8/4/10 25/4/10 34/16/10 
f 38/17/11 11/9/11 31/9/11 39/17/11 
s 2
f 31/3/20 23/3/20 22/6/20 39/18/20 
s off
f 5/5/58 35/1/58 103/1/58 104/5/58 
f 35/1/59 21/21/59 105/21/59 103/1/59 
f 21/21/60 38/20/60 106/20/60 105/21/60 
f 38/20/61 37/7/61 107/7/61 106/20/61 
f 37/2/62 6/6/62 108/6/62 107/2/62 
f 6/6/63 5/5/63 104/5/63 108/6/63 
f 56/19/64 103/19/64 105/8/64 96/8/64 
f 64/9/65 96/8/65 105/8/65 106/9/65 
f 65/15/66 107/15/66 108/2/66 68/2/66 
f 55/1/67 68/2/67 108/2/67 104/1/67 
f 42/19/27 67/1/27 57/1/27 43/19/27 
f 45/9/29 46/9/29 50/15/29 49/15/29 
f 52/19/30 73/1/30 66/1/30 53/19/30 
f 53/19/27 66/1/27 67/1/27 42/19/27 
f 56/19/68 96/8/68 44/8/68 43/19/68 
f 58/9/33 59/9/33 63/15/33 62/15/33 
f 59/9/29 45/9/29 49/15/29 63/15/29 
f 68/2/34 47/2/34 50/15/34 65/15/34 
f 62/15/17 61/2/17 73/1/17 52/19/17 
f 55/1/69 104/1/69 103/19/69 56/19/69 
f 64/9/70 106/9/70 107/15/70 65/15/70 
# 108 polygons

