# 3ds Max Wavefront OBJ Exporter v0.97b - (c)2007 guruware
# File Created: 02.07.2017 17:43:56

mtllib llave 3.mtl

#
# object llave
#

v  0.9840 0.2082 -1.8115
v  0.9840 0.8193 -1.8115
v  -0.6265 0.8193 -2.0729
v  -0.6265 0.2082 -2.0729
v  2.7167 0.8193 -2.9301
v  2.5945 0.8193 -2.0729
v  2.5945 0.2082 -2.0729
v  2.7167 0.2082 -2.9301
v  0.9840 0.2082 -5.7632
v  0.9840 0.8193 -5.7632
v  2.5945 0.8193 -5.5018
v  2.5945 0.2082 -5.5018
v  -0.8708 0.2082 -3.7873
v  -0.8708 0.8193 -3.7873
v  -0.6265 0.8193 -5.5018
v  -0.6265 0.2082 -5.5018
v  -0.1310 0.2082 -4.9270
v  -0.2761 0.2082 -3.7873
v  0.9840 0.2082 -2.5013
v  -0.1310 0.2082 -2.6477
v  -0.1310 0.8193 -2.6477
v  0.9840 0.8193 -2.5013
v  0.9840 0.8193 -5.0734
v  0.9840 0.2082 -5.0734
v  2.0990 0.2082 -4.9270
v  2.0990 0.8193 -4.9270
v  -0.2761 0.8193 -3.7873
v  -0.1310 0.8193 -4.9270
v  2.0990 0.2082 -2.6477
v  2.0990 0.8193 -2.6477
v  7.3100 0.6675 -4.1548
v  7.3100 0.3332 -4.1548
v  6.5246 0.3332 -4.1688
v  6.5246 0.6675 -4.1688
v  7.3100 0.6743 -3.7518
v  6.5246 0.6743 -3.7656
v  6.5246 0.6810 -3.3623
v  7.3100 0.6810 -3.3488
v  8.0429 0.3399 -3.7385
v  8.7424 0.3332 -4.1072
v  8.7424 0.3467 -3.3016
v  8.0429 0.3467 -3.3358
v  5.8454 0.3509 -3.3747
v  5.8454 0.3443 -3.7715
v  6.5246 0.3399 -3.7656
v  6.5246 0.3467 -3.3623
v  8.7424 0.6675 -4.1072
v  8.0429 0.3332 -4.1413
v  8.0429 0.6675 -4.1413
v  8.0429 0.6810 -3.3358
v  8.7424 0.6810 -3.3016
v  5.8454 0.6646 -4.1683
v  5.8454 0.6712 -3.7715
v  5.8454 0.6778 -3.3747
v  2.7167 0.8193 -4.6446
v  2.7167 0.2082 -4.6446
v  2.2441 0.2082 -3.7873
v  2.2441 0.8193 -3.7873
v  2.8388 0.2082 -3.7873
v  2.8388 0.2890 -3.7873
v  2.7281 0.2890 -3.3856
v  2.7281 0.2890 -4.1890
v  2.7281 0.7385 -4.1890
v  2.8388 0.8193 -3.7873
v  2.8388 0.7385 -3.7873
v  2.7281 0.7385 -3.3856
v  5.8454 0.3377 -4.1683
v  7.3100 0.3399 -3.7518
v  7.3100 0.3467 -3.3488
v  6.6054 0.6002 -3.3609
v  7.3100 0.6002 -3.3488
v  7.9621 0.6002 -3.3372
v  7.9621 0.6002 -1.6504
v  7.5050 0.6002 -1.6584
v  7.5050 0.4275 -1.6584
v  7.9621 0.4275 -1.6504
v  6.6054 0.6002 -1.6741
v  6.6054 0.4275 -1.6741
v  7.1183 0.4275 -1.6652
v  7.1183 0.6002 -1.6652
v  7.1183 0.6002 -2.0243
v  7.1183 0.4275 -2.0243
v  7.5050 0.4275 -2.0243
v  7.5050 0.6002 -2.0243
v  7.9621 0.4275 -2.3539
v  7.9621 0.6002 -2.3539
v  7.9621 0.4275 -2.8123
v  7.9621 0.4275 -3.3372
v  7.9621 0.6002 -2.8123
v  7.7354 0.6002 -2.8123
v  7.7354 0.4275 -2.8123
v  7.7354 0.6002 -2.3539
v  7.7354 0.4275 -2.3539
v  6.6054 0.4275 -2.3539
v  6.6054 0.6002 -2.3539
v  6.8214 0.6002 -2.3539
v  6.8214 0.4275 -2.3539
v  6.6054 0.6002 -2.8123
v  6.6054 0.4275 -3.3609
v  6.6054 0.4275 -2.8123
v  6.8214 0.4275 -2.8123
v  6.8214 0.6002 -2.8123
v  7.3100 0.4275 -3.3488
# 103 vertices

vn 0.0000 0.0000 1.0000
vn -0.1602 0.0000 0.9871
vn 0.9900 -0.0000 0.1410
vn 0.9900 0.0000 0.1410
vn 0.0000 0.0000 -1.0000
vn -0.0000 0.0000 -1.0000
vn 0.1602 0.0000 -0.9871
vn -1.0000 0.0000 0.0000
vn -0.9900 0.0000 -0.1410
vn 0.0000 -1.0000 -0.0000
vn 0.1302 0.0000 -0.9915
vn -0.1302 0.0000 0.9915
vn 1.0000 0.0000 0.0000
vn 1.0000 0.0000 -0.0000
vn 0.9920 0.0000 0.1263
vn -0.9900 0.0000 0.1410
vn 0.0000 1.0000 -0.0000
vn 0.9920 0.0000 -0.1263
vn 0.1602 0.0000 0.9871
vn -0.1602 0.0000 -0.9871
vn -0.1302 0.0000 -0.9915
vn 0.1302 0.0000 0.9915
vn 0.0179 0.0000 -0.9998
vn 0.0003 0.9999 -0.0168
vn -0.0008 -0.9999 0.0168
vn -0.0066 -0.9998 0.0167
vn 0.0487 0.0000 -0.9988
vn 0.0008 0.9999 -0.0168
vn -0.0044 0.9999 -0.0167
vn -0.0182 0.0000 0.9998
vn 0.9900 0.0000 -0.1410
vn -1.0000 0.0000 -0.0000
vn -0.9920 0.0000 -0.1263
vn -0.9920 0.0000 0.1263
vn 0.8990 0.4051 0.1663
vn 0.8990 0.4051 -0.1663
vn 0.9997 0.0000 -0.0250
vn 0.8990 -0.4051 -0.1663
vn 0.8990 -0.4051 0.1663
vn 0.9997 -0.0000 0.0250
vn 0.0169 -0.9998 0.0059
vn 0.0066 0.0000 -1.0000
vn 0.0209 0.9998 -0.0054
vn -0.0035 0.0000 1.0000
vn -0.0003 -0.9999 0.0168
vn -0.0067 -0.9998 0.0167
vn 0.0191 -0.9998 0.0109
vn 0.0231 0.9997 -0.0115
vn 0.0184 0.0000 -0.9998
vn -0.0007 0.0000 -1.0000
vn -0.0488 0.0000 0.9988
vn -0.0173 -0.0000 0.9999
vn -0.0177 0.0000 0.9998
vn -0.0173 0.0000 0.9999
vn -0.0177 -0.0000 0.9998
vn -0.0000 -1.0000 -0.0000
vn 0.0000 -1.0000 0.0000
vn -0.0000 -1.0000 0.0000
# 58 vertex normals

vt 0.5000 0.0000 0.0000
vt 0.5000 1.0000 0.0000
vt 0.0000 1.0000 0.0000
vt 0.0000 0.0000 0.0000
vt 0.2500 1.0000 0.0000
vt 0.2500 0.0000 0.0000
vt 1.0000 1.0000 0.0000
vt 1.0000 0.5000 0.0000
vt 1.0000 1.2522 0.0000
vt 0.5000 0.5000 0.0000
vt 0.5000 -0.5000 0.0000
vt 1.0000 0.0000 0.0000
vt 0.0000 1.2522 0.0000
vt 0.0000 0.5000 0.0000
vt 0.0000 -0.5000 0.0000
vt 0.7500 1.0000 0.0000
vt 0.5001 1.0000 0.0000
vt 0.7500 0.0000 0.0000
vt 0.9999 1.0000 0.0000
vt 0.5002 1.0000 0.0000
vt 0.9998 1.0000 0.0000
vt 0.5000 0.0224 0.0000
vt 0.5000 0.7500 0.0000
vt 0.2500 0.5000 0.0000
vt -0.2500 0.7500 0.0000
vt 0.5000 1.2500 0.0000
vt 1.0000 0.7500 0.0000
vt 0.0000 1.2500 0.0000
vt 0.3161 0.5661 0.0000
vt 0.2500 0.7354 0.0000
vt 1.0000 0.2727 0.0000
vt 0.5000 0.7273 0.0000
vt 0.9999 0.0000 0.0000
vt 0.9998 0.0000 0.0000
vt 1.0000 -0.0000 0.0000
vt 1.0000 0.9776 0.0000
vt 1.0000 0.7636 0.0000
vt 1.0000 0.2743 0.0000
vt 0.0000 0.2743 0.0000
vt 0.0000 0.7636 0.0000
vt 0.2019 0.2743 0.0000
vt 0.2019 0.7636 0.0000
vt 0.7833 0.7636 0.0000
vt 0.7833 0.2743 0.0000
vt 0.4137 0.7636 0.0000
vt 0.4137 0.2743 0.0000
vt 0.5863 0.7636 0.0000
vt 0.5863 0.2743 0.0000
vt 0.5585 0.7636 0.0000
vt 0.5585 0.2743 0.0000
vt 0.4415 0.7636 0.0000
vt 0.4415 0.2743 0.0000
vt 1.0000 0.1239 0.0000
vt 1.0000 -0.2522 0.0000
vt 1.0000 -0.3668 0.0000
vt 1.0000 -0.0642 0.0000
vt 1.0000 0.8761 0.0000
vt 1.0000 1.3668 0.0000
vt 1.0000 1.0642 0.0000
vt 0.0000 0.1239 0.0000
vt 0.0000 -0.3668 0.0000
vt 0.0000 -0.2522 0.0000
vt 0.0000 -0.0642 0.0000
vt 0.0000 0.8761 0.0000
vt 0.0000 1.3668 0.0000
vt 0.0000 1.0642 0.0000
# 66 texture coords

g llave
usemtl wire_177027088
s 8
f 1/1/1 2/2/1 3/3/2 4/4/2 
s 16
f 5/5/3 6/3/4 7/4/3 8/6/3 
s 32
f 9/1/5 10/2/6 11/3/7 12/4/7 
s 64
f 13/1/8 14/2/8 15/3/9 16/4/9 
s off
f 17/7/10 18/8/10 13/8/10 16/9/10 
s 1
f 19/1/6 20/4/11 21/4/11 22/1/5 
f 23/2/1 24/2/1 25/3/12 26/3/12 
s 2
f 27/10/13 18/11/14 17/12/15 28/7/15 
s 64
f 4/12/16 3/7/16 14/2/8 13/1/8 
s off
f 28/3/17 15/13/17 14/14/17 27/14/17 
s 2
f 21/4/18 20/15/18 18/1/14 27/10/13 
s 8
f 7/12/19 6/7/19 2/2/1 1/1/1 
s 32
f 16/12/20 15/7/20 10/2/6 9/1/5 
s 1
f 29/8/21 19/10/6 22/1/5 30/12/21 
f 28/7/22 17/8/22 24/10/1 23/2/1 
s off
f 31/7/23 32/12/23 33/12/23 34/7/23 
f 35/16/24 36/16/24 37/2/24 38/17/24 
f 39/18/25 40/12/25 41/1/25 42/1/25 
f 43/1/26 44/18/26 45/18/26 46/1/26 
f 47/7/27 40/12/27 48/12/27 49/7/27 
f 47/7/28 49/19/28 50/2/28 51/2/28 
f 35/16/24 38/2/24 50/20/24 49/21/24 
f 34/7/29 52/7/29 53/16/29 36/16/29 
f 43/22/30 46/1/30 37/2/30 54/2/30 
f 11/3/31 55/23/31 56/24/31 12/25/31 
s 2
f 57/26/32 29/27/33 30/12/33 58/10/32 
f 25/28/34 57/23/32 58/10/32 26/3/34 
s off
f 8/6/35 59/1/35 60/1/35 61/6/35 
f 59/1/36 56/24/36 62/24/36 60/1/36 
f 55/23/37 63/23/37 62/29/37 56/24/37 
f 55/23/38 64/8/38 65/8/38 63/23/38 
f 64/2/39 5/5/39 66/5/39 65/2/39 
f 5/5/40 8/6/40 61/6/40 66/30/40 
f 44/18/41 60/18/41 62/12/41 67/12/41 
f 52/7/42 67/31/42 62/12/42 63/7/42 
f 53/16/43 65/16/43 66/2/43 54/2/43 
f 43/1/44 54/32/44 66/2/44 61/1/44 
f 68/18/45 69/1/45 46/1/45 45/18/45 
f 45/18/45 33/12/45 32/33/45 68/18/45 
f 31/7/24 34/7/24 36/16/24 35/16/24 
f 39/18/45 42/1/45 69/1/45 68/18/45 
f 68/18/45 32/12/45 48/34/45 39/18/45 
f 44/18/46 67/12/46 33/12/46 45/18/46 
f 49/7/24 31/7/24 35/16/24 
f 54/2/29 37/2/29 36/16/29 53/16/29 
f 41/1/14 40/35/14 47/7/14 51/2/14 
f 43/1/47 61/1/47 60/18/47 44/18/47 
f 52/7/48 63/7/48 65/16/48 53/16/48 
f 31/7/49 49/7/49 48/12/49 32/12/49 
f 67/12/50 52/36/50 34/7/50 33/12/50 
f 50/2/51 42/1/51 41/1/51 51/2/51 
f 70/1/52 71/1/52 38/1/52 37/1/52 
f 72/2/53 50/2/53 38/2/53 71/2/53 
f 73/2/53 74/2/53 75/1/53 76/1/53 
f 77/2/54 78/1/54 79/1/54 80/2/54 
s 1
f 81/37/1 82/38/1 83/39/1 84/40/1 
s 2
f 84/37/32 83/38/32 75/41/32 74/42/32 
f 82/39/14 81/40/14 80/43/14 79/44/14 
s off
f 73/2/14 76/1/14 85/1/14 86/2/14 
f 87/1/14 88/1/14 72/2/14 89/2/14 
s 1
f 89/45/1 90/37/1 91/38/1 87/46/1 
s 2
f 90/40/14 92/37/14 93/38/14 91/39/14 
s 1
f 93/39/5 92/40/5 86/47/5 85/48/5 
s off
f 94/1/32 78/1/32 77/2/32 95/2/32 
f 92/2/17 96/2/17 81/2/17 84/2/17 
f 93/1/10 83/1/10 82/1/10 97/1/10 
f 98/2/32 70/2/32 99/1/32 100/1/32 
s 1
f 101/39/1 102/40/1 98/49/1 100/50/1 
s 2
f 102/37/32 101/38/32 97/39/32 96/40/32 
s 1
f 95/51/5 96/37/5 97/38/5 94/52/5 
s off
f 8/53/10 29/12/10 57/8/10 59/8/10 
f 7/54/10 1/55/10 29/12/10 8/53/10 
f 1/55/10 4/54/10 19/56/10 29/12/10 
f 4/54/10 13/8/10 20/12/10 19/56/10 
f 13/8/10 18/8/10 20/12/10 
f 57/8/10 25/7/10 56/57/10 59/8/10 
f 25/7/10 9/58/10 12/9/10 56/57/10 
f 24/59/10 16/9/10 9/58/10 25/7/10 
f 17/7/10 16/9/10 24/59/10 
f 58/14/17 30/4/17 5/60/17 64/14/17 
f 30/4/17 2/61/17 6/62/17 5/60/17 
f 22/63/17 3/62/17 2/61/17 30/4/17 
f 21/4/17 14/14/17 3/62/17 22/63/17 
f 27/14/17 14/14/17 21/4/17 
f 55/64/17 26/3/17 58/14/17 64/14/17 
f 11/13/17 10/65/17 26/3/17 55/64/17 
f 10/65/17 15/13/17 23/66/17 26/3/17 
f 15/13/17 28/3/17 23/66/17 
f 40/12/25 39/18/25 48/12/25 
f 99/1/54 46/1/54 69/1/54 103/1/54 
f 99/1/54 70/1/54 37/1/54 46/1/54 
f 42/2/55 88/2/55 103/2/55 69/2/55 
f 50/2/53 72/2/53 88/2/53 42/2/53 
f 86/2/17 84/2/17 74/2/17 73/2/17 
f 92/2/17 84/2/17 86/2/17 
f 81/2/17 95/2/17 77/2/17 80/2/17 
f 81/2/17 96/2/17 95/2/17 
f 98/2/17 102/2/17 71/2/17 70/2/17 
f 72/2/17 71/2/17 90/2/17 89/2/17 
f 102/2/17 92/2/17 90/2/17 71/2/17 
f 96/2/17 92/2/17 102/2/17 
f 75/1/10 83/1/10 85/1/10 76/1/10 
f 83/1/56 93/1/56 85/1/56 
f 99/1/10 103/1/10 101/1/10 100/1/10 
f 78/1/10 94/1/10 82/1/10 79/1/10 
f 97/1/57 82/1/57 94/1/57 
f 91/1/58 103/1/58 88/1/58 87/1/58 
f 91/1/57 93/1/57 101/1/57 103/1/57 
f 93/1/10 97/1/10 101/1/10 
# 97 polygons - 12 triangles

