# 3ds Max Wavefront OBJ Exporter v0.97b - (c)2007 guruware
# File Created: 04.07.2017 16:49:01

mtllib puerta_nivel2.mtl

#
# object puerta_nivel2
#

v  -28.9443 41.0243 -15.4638
v  -28.9443 41.0243 -17.9236
v  -28.9443 0.0725 -17.9236
v  -28.9443 0.0725 -15.4638
v  20.7907 41.0243 -17.9236
v  20.7907 41.0243 -15.4638
v  20.7907 0.0725 -15.4638
v  20.7907 0.0725 -17.9236
v  4.6393 0.0725 -15.4638
v  4.6393 0.0725 -17.9236
v  -12.7661 0.0725 -15.4638
v  -12.7661 0.0725 -17.9236
v  4.6393 29.3192 -15.4638
v  4.6393 29.3192 -17.9236
v  1.1582 32.5597 -17.9236
v  1.1582 32.5597 -15.4638
v  -2.3229 33.8681 -17.9236
v  -2.3229 33.8681 -15.4638
v  -5.8040 33.8681 -15.4638
v  -5.8040 33.8681 -17.9236
v  -9.2851 32.5597 -17.9236
v  -9.2851 32.5597 -15.4638
v  -12.7661 29.3192 -17.9236
v  -12.7661 29.3192 -15.4638
# 24 vertices

vn -1.0000 0.0000 -0.0000
vn 1.0000 0.0000 -0.0000
vn 0.0000 1.0000 -0.0000
vn 0.0000 -1.0000 -0.0000
vn -0.5266 -0.8501 -0.0000
vn -0.6814 -0.7320 -0.0000
vn -0.1788 -0.9839 -0.0000
vn 0.1788 -0.9839 -0.0000
vn 0.5266 -0.8501 -0.0000
vn 0.6814 -0.7320 -0.0000
vn 0.0000 0.0000 -1.0000
vn 0.0000 0.0000 1.0000
# 12 vertex normals

vt 0.7049 0.9029 0.0000
vt 0.6783 0.9029 0.0000
vt 0.6783 0.4597 0.0000
vt 0.7049 0.4597 0.0000
vt 0.6638 0.9029 0.0000
vt 0.6371 0.9029 0.0000
vt 0.6371 0.4597 0.0000
vt 0.6638 0.4597 0.0000
vt 0.6226 0.4597 0.0000
vt 0.6226 0.9980 0.0000
vt 0.5960 0.9980 0.0000
vt 0.5960 0.4597 0.0000
vt 0.5814 0.9980 0.0000
vt 0.5548 0.9980 0.0000
vt 0.5548 0.8232 0.0000
vt 0.5814 0.8232 0.0000
vt 0.5548 0.6348 0.0000
vt 0.5548 0.4597 0.0000
vt 0.5814 0.4597 0.0000
vt 0.5814 0.6348 0.0000
vt 0.5862 0.0025 0.0000
vt 0.5862 1.0000 0.0000
vt 0.7701 1.0000 0.0000
vt 0.7701 0.0025 0.0000
vt 0.8000 0.7701 0.0000
vt 1.0000 0.7701 0.0000
vt 1.0000 0.5862 0.0000
vt 0.8000 0.5862 0.0000
vt 0.6000 0.7701 0.0000
vt 0.6000 0.5862 0.0000
vt 0.4000 0.5862 0.0000
vt 0.4000 0.7701 0.0000
vt 0.2000 0.7701 0.0000
vt 0.2000 0.5862 0.0000
vt 0.0000 0.7701 0.0000
vt 0.0000 0.5862 0.0000
vt 0.4138 1.0000 0.0000
vt 0.4138 0.0025 0.0000
vt 0.2299 0.0025 0.0000
vt 0.2299 1.0000 0.0000
vt 0.5403 0.4597 0.0000
vt 0.5403 0.9029 0.0000
vt 0.3652 0.7762 0.0000
vt 0.3652 0.4597 0.0000
vt 0.3275 0.8113 0.0000
vt 0.2898 0.8255 0.0000
vt 0.0020 0.9029 0.0000
vt 0.2522 0.8255 0.0000
vt 0.2145 0.8113 0.0000
vt 0.1768 0.7762 0.0000
vt 0.0020 0.4597 0.0000
vt 0.1768 0.4597 0.0000
vt 0.1771 0.3185 0.0000
vt 0.0020 0.4452 0.0000
vt 0.0020 0.0020 0.0000
vt 0.1771 0.0020 0.0000
vt 0.2148 0.3536 0.0000
vt 0.2525 0.3678 0.0000
vt 0.5403 0.4452 0.0000
vt 0.2901 0.3678 0.0000
vt 0.3278 0.3536 0.0000
vt 0.3655 0.3185 0.0000
vt 0.3655 0.0020 0.0000
vt 0.5403 0.0020 0.0000
# 64 texture coords

g puerta_nivel2
usemtl puerta_nivel2
s 1
f 1/1/1 2/2/1 3/3/1 4/4/1 
f 5/5/2 6/6/2 7/7/2 8/8/2 
s 2
f 1/9/3 6/10/3 5/11/3 2/12/3 
f 8/13/4 7/14/4 9/15/4 10/16/4 
f 11/17/4 4/18/4 3/19/4 12/20/4 
s 1
f 9/21/1 13/22/1 14/23/1 10/24/1 
s 2
f 15/25/5 14/26/6 13/27/6 16/28/5 
f 17/29/7 15/25/5 16/28/5 18/30/7 
f 18/30/7 19/31/8 20/32/8 17/29/7 
f 21/33/9 20/32/8 19/31/8 22/34/9 
f 23/35/10 21/33/9 22/34/9 24/36/10 
s 1
f 24/37/2 11/38/2 12/39/2 23/40/2 
s 4
f 3/41/11 2/42/11 23/43/11 12/44/11 
f 21/45/11 23/43/11 2/42/11 20/46/11 
f 5/47/11 17/48/11 20/46/11 2/42/11 
f 15/49/11 17/48/11 5/47/11 14/50/11 
f 8/51/11 10/52/11 14/50/11 5/47/11 
f 24/53/12 1/54/12 4/55/12 11/56/12 
f 1/54/12 24/53/12 22/57/12 19/58/12 
f 6/59/12 1/54/12 19/58/12 18/60/12 
f 6/59/12 18/60/12 16/61/12 13/62/12 
f 13/62/12 9/63/12 7/64/12 6/59/12 
# 22 polygons

