# 3ds Max Wavefront OBJ Exporter v0.97b - (c)2007 guruware
# File Created: 19.11.2017 19:05:47

mtllib stone road.mtl

#
# object Plane001
#

v  56.0902 0.0000 -6.2701
v  56.0902 0.0000 4.0541
v  60.3838 0.0000 0.4833
v  60.3838 0.0000 -9.8409
v  64.6775 0.0000 -2.1743
v  69.7692 0.0000 -3.0874
v  69.7692 0.0000 -13.4116
v  64.6775 0.0000 -11.8563
v  51.0931 0.0000 -6.2701
v  51.0931 0.0000 4.0541
v  36.1017 0.0000 4.0541
v  36.1017 0.0000 -6.2701
v  21.9728 0.0000 2.3529
v  21.9728 0.0000 14.2288
v  17.2589 0.0000 0.8851
v  17.2589 0.0000 14.2127
v  12.5451 0.0000 14.1966
v  12.5451 0.0000 2.3207
v  3.6963 0.0000 -2.3780
v  3.6963 0.0000 7.9462
v  15.1016 0.0000 29.0266
v  24.0459 0.0000 26.0468
v  24.8053 0.0000 31.4207
v  16.7296 0.0000 34.3623
v  19.3455 0.0000 39.8923
v  26.0780 0.0000 35.3211
v  28.8990 0.0000 38.3610
v  23.9858 0.0000 44.7510
v  30.7471 0.0000 45.7249
v  34.0612 0.0000 38.1995
v  -5.1525 0.0000 1.6959
v  -5.1525 0.0000 -8.6283
v  -17.3420 0.0000 -9.1360
v  -15.1840 0.0000 1.3190
v  -21.7489 0.0000 -9.0499
v  -21.7489 0.0000 1.2743
v  -41.4437 0.0000 -0.9321
v  -41.4437 0.0000 -10.5128
v  -46.5484 0.0000 -14.0986
v  -46.5484 0.0000 -3.7744
v  -51.6532 0.0000 -7.2053
v  -51.6532 0.0000 -17.8268
v  -55.3153 0.0000 -19.1116
v  -55.3153 0.0000 -8.7874
v  -7.2973 0.0000 -12.5423
v  -17.0165 0.0000 -12.9192
v  -15.8092 0.0000 -24.6612
v  -6.3935 0.0000 -24.1573
v  -5.5485 0.0000 -33.5834
v  -12.7216 0.0000 -31.3429
v  3.3653 0.0000 -24.0041
v  3.8574 0.0000 -33.5323
v  -58.9774 0.0000 -19.2101
v  -66.3016 0.0000 -19.4069
v  -66.3016 0.0000 -9.0827
v  -58.9774 0.0000 -8.8858
v  -28.3138 0.0000 -9.0946
v  -28.3138 0.0000 1.2296
v  -7.8280 0.0000 -16.4563
v  -7.4711 0.0000 -20.3068
v  -16.5998 0.0000 -20.7472
v  -16.9075 0.0000 -16.8332
v  16.7501 0.0000 -23.7240
v  16.6756 0.0000 -33.4812
v  37.5084 0.0000 46.0276
v  37.8899 0.0000 38.0380
v  46.0960 0.0000 -6.2701
v  41.0989 0.0000 -6.2701
v  41.0989 0.0000 4.0541
v  46.0960 0.0000 4.0541
v  74.8609 0.0000 -3.0874
v  74.8609 0.0000 -13.4116
# 72 vertices

vn 0.0000 1.0000 -0.0000
# 1 vertex normals

vt 0.0000 1.0000 0.0000
vt 0.0000 0.0000 0.0000
vt 0.2500 0.0000 0.0000
vt 0.2500 1.0000 0.0000
vt 0.5000 0.0000 0.0000
vt 0.7500 0.0000 0.0000
vt 0.7500 1.0000 0.0000
vt 0.5000 1.0000 0.0000
vt 1.0000 0.0000 0.0000
vt 1.0000 1.0000 0.0000
# 10 texture coords

o Plane001
g Plane001
usemtl wire_008008136
s 1
f 1/1/1 2/2/1 3/3/1 4/4/1 
f 5/5/1 6/6/1 7/7/1 8/8/1 
s off
f 2/2/1 1/1/1 9/1/1 10/2/1 
f 11/2/1 12/1/1 13/1/1 14/2/1 
f 14/2/1 13/1/1 15/1/1 16/2/1 
f 17/2/1 18/1/1 19/1/1 20/2/1 
f 14/2/1 16/2/1 17/2/1 21/2/1 22/2/1 
f 23/2/1 24/2/1 25/2/1 26/2/1 
f 27/2/1 28/2/1 29/2/1 30/2/1 
f 31/2/1 32/1/1 33/1/1 34/2/1 
f 34/2/1 33/1/1 35/1/1 36/2/1 
f 37/2/1 38/1/1 39/1/1 40/2/1 
f 41/2/1 42/1/1 43/1/1 44/2/1 
f 33/1/1 32/1/1 45/1/1 46/1/1 
f 47/1/1 48/1/1 49/1/1 50/1/1 
f 49/1/1 48/1/1 51/1/1 52/1/1 
f 39/1/1 42/1/1 41/2/1 40/2/1 
f 53/1/1 54/1/1 55/2/1 56/2/1 
f 43/1/1 53/1/1 56/2/1 44/2/1 
f 57/1/1 38/1/1 37/2/1 58/2/1 
f 35/1/1 57/1/1 58/2/1 36/2/1 
f 59/1/1 60/1/1 61/1/1 62/1/1 
f 51/1/1 63/1/1 64/1/1 52/1/1 
f 19/1/1 32/1/1 31/2/1 20/2/1 
f 21/2/1 24/2/1 23/2/1 22/2/1 
f 25/2/1 28/2/1 27/2/1 26/2/1 
f 29/2/1 65/2/1 66/2/1 30/2/1 
f 67/1/1 68/1/1 69/2/1 70/2/1 
f 9/1/1 67/1/1 70/2/1 10/2/1 
f 68/1/1 12/1/1 11/2/1 69/2/1 
s 1
f 6/6/1 71/9/1 72/10/1 7/7/1 
f 3/3/1 5/5/1 8/8/1 4/4/1 
s off
f 45/1/1 59/1/1 62/1/1 46/1/1 
f 60/1/1 48/1/1 47/1/1 61/1/1 
f 15/1/1 18/1/1 17/2/1 16/2/1 
# 35 polygons

