# 3ds Max Wavefront OBJ Exporter v0.97b - (c)2007 guruware
# File Created: 23.12.2017 12:46:25

mtllib Pared con Zocalo 2.mtl

#
# object Pared
#

v  -26.8637 63.7103 -2.4643
v  -26.8637 1.8431 -2.4643
v  -26.8637 1.8431 -0.0045
v  -26.8637 63.7103 -0.0045
v  20.7818 1.8431 -0.0045
v  20.7818 63.7103 -0.0045
v  20.7818 1.8431 -2.4643
v  20.7818 63.7103 -2.4643
# 8 vertices

vn -1.0000 0.0000 -0.0000
vn 0.0000 0.0000 1.0000
vn 1.0000 0.0000 -0.0000
vn 0.0000 0.0000 -1.0000
# 4 vertex normals

vt 0.7922 0.5243 0.0000
vt 0.1972 0.5209 0.0000
vt 0.1974 0.4972 0.0000
vt 0.7923 0.5006 0.0000
vt 0.2000 0.0390 0.0000
vt 0.7949 0.0425 0.0000
vt 0.2002 0.0154 0.0000
vt 0.7951 0.0188 0.0000
vt 0.7895 0.9824 0.0000
vt 0.1946 0.9790 0.0000
# 10 texture coords

o Pared
g Pared
usemtl ParedNueva
s 8
f 1/1/1 2/2/1 3/3/1 4/4/1 
s 16
f 4/4/2 3/3/2 5/5/2 6/6/2 
s 32
f 6/6/3 5/5/3 7/7/3 8/8/3 
s 64
f 8/9/4 7/10/4 2/2/4 1/1/4 
# 4 polygons

#
# object Zocalo1
#

v  -27.2099 64.3948 -3.0806
v  -27.2099 60.9114 -3.0806
v  -27.2099 60.9114 0.6118
v  -27.2099 64.3948 0.6118
v  21.1279 60.9114 0.6118
v  21.1279 64.3948 0.6118
v  21.1279 60.9114 -3.0806
v  21.1279 64.3948 -3.0806
# 8 vertices

vn -0.7071 0.0000 -0.7071
vn -0.5774 -0.5774 -0.5774
vn -0.5774 -0.5774 0.5774
vn -0.7071 0.0000 0.7071
vn 0.5774 -0.5774 0.5774
vn 0.7071 0.0000 0.7071
vn 0.5774 -0.5774 -0.5774
vn 0.7071 0.0000 -0.7071
# 8 vertex normals

vt 0.0159 0.4823 0.0000
vt 0.0764 0.4823 0.0000
vt 0.0763 0.5464 0.0000
vt 0.0159 0.5464 0.0000
vt 0.0763 0.6069 0.0000
vt 0.9154 0.5469 0.0000
vt 0.9153 0.6074 0.0000
vt 0.9758 0.5470 0.0000
vt 0.9154 0.4828 0.0000
vt 0.9759 0.4829 0.0000
vt 0.9155 0.4224 0.0000
vt 0.0764 0.4219 0.0000
# 12 texture coords

o Zocalo1
g Zocalo1
usemtl Zocalo
s 8
f 9/11/5 10/12/6 11/13/7 12/14/8 
s 16
f 12/15/8 11/13/7 13/16/9 14/17/10 
s 32
f 14/18/10 13/16/9 15/19/11 16/20/12 
s 64
f 16/21/12 15/19/11 10/12/6 9/22/5 
s off
f 10/12/6 15/19/11 13/16/9 11/13/7 
# 5 polygons

#
# object Zocalo2
#

v  -27.2099 -0.1901 0.6118
v  -27.2099 3.2932 0.6118
v  -27.2099 3.2932 -3.0806
v  -27.2099 -0.1901 -3.0806
v  21.1279 3.2932 -3.0806
v  21.1279 -0.1901 -3.0806
v  21.1279 3.2932 0.6118
v  21.1279 -0.1901 0.6118
# 8 vertices

vn -0.7071 0.0000 0.7071
vn -0.5774 0.5774 0.5774
vn -0.5774 0.5774 -0.5774
vn -0.7071 0.0000 -0.7071
vn 0.5774 0.5774 -0.5774
vn 0.7071 0.0000 -0.7071
vn 0.5774 0.5774 0.5774
vn 0.7071 0.0000 0.7071
# 8 vertex normals

vt 0.0159 0.4906 0.0000
vt 0.0763 0.4906 0.0000
vt 0.0763 0.5547 0.0000
vt 0.0159 0.5547 0.0000
vt 0.0763 0.6151 0.0000
vt 0.9154 0.5547 0.0000
vt 0.9154 0.6151 0.0000
vt 0.9759 0.5547 0.0000
vt 0.9154 0.4906 0.0000
vt 0.9759 0.4906 0.0000
vt 0.9154 0.4301 0.0000
vt 0.0763 0.4301 0.0000
# 12 texture coords

o Zocalo2
g Zocalo2
usemtl Zocalo
s 8
f 17/23/13 18/24/14 19/25/15 20/26/16 
s 16
f 20/27/16 19/25/15 21/28/17 22/29/18 
s 32
f 22/30/18 21/28/17 23/31/19 24/32/20 
s 64
f 24/33/20 23/31/19 18/24/14 17/34/13 
s off
f 18/24/14 23/31/19 21/28/17 19/25/15 
# 5 polygons

