# 3ds Max Wavefront OBJ Exporter v0.97b - (c)2007 guruware
# File Created: 03.07.2017 16:57:41

mtllib aleta.mtl

#
# object Pyramid001
#

v  -29.7577 35.7196 -2.9734
v  -36.8916 22.1171 -2.1324
v  -35.0809 22.1171 -2.1324
v  -35.0809 22.1171 -3.8143
v  -36.8916 22.1171 -3.8143
v  -34.1007 0.0050 -1.2915
v  -32.2900 0.0050 -2.9734
v  -30.4794 0.0050 -1.2915
v  -30.4794 0.0050 -4.6553
v  -34.1007 0.0050 -4.6553
v  -37.6980 11.0610 -1.7120
v  -34.9820 11.0610 -1.7120
v  -34.9820 11.0610 -4.2348
v  -37.6980 11.0610 -4.2348
v  -10.3613 29.5927 -2.9734
v  -22.9523 20.7957 -2.1324
v  -21.3446 19.9629 -2.1324
v  -21.3446 19.9629 -3.8143
v  -22.9523 20.7957 -3.8143
v  -30.6447 -0.1222 -1.2915
v  -29.0370 -0.9550 -2.9734
v  -27.4292 -1.7878 -1.2915
v  -27.4292 -1.7878 -4.6553
v  -30.6447 -0.1222 -4.6553
v  -28.7536 11.3495 -1.7120
v  -26.3420 10.1003 -1.7120
v  -26.3420 10.1003 -4.2348
v  -28.7536 11.3495 -4.2348
v  7.0152 8.6283 -2.9734
v  -8.3004 9.7916 -2.1324
v  -7.5833 8.1290 -2.1324
v  -7.5833 8.1290 -3.8143
v  -8.3004 9.7916 -3.8143
v  -27.4990 -1.5285 -1.2915
v  -26.7819 -3.1911 -2.9734
v  -26.0648 -4.8537 -1.2915
v  -26.0648 -4.8537 -4.6553
v  -27.4990 -1.5285 -4.6553
v  -18.7717 6.1533 -1.7120
v  -17.6961 3.6595 -1.7120
v  -17.6961 3.6595 -4.2348
v  -18.7717 6.1533 -4.2348
# 42 vertices

vn -0.0000 0.0617 0.9981
vn -0.0000 0.0475 0.9989
vn -0.0000 0.0511 0.9987
vn 0.9312 -0.3644 -0.0000
vn 0.9845 -0.1752 -0.0000
vn 0.0000 0.0617 -0.9981
vn 0.0000 0.0511 -0.9987
vn 0.0000 0.0475 -0.9989
vn -0.8856 0.4645 -0.0000
vn -0.9633 0.2684 -0.0000
vn 0.0000 -1.0000 -0.0000
vn -0.0000 0.0380 0.9993
vn 0.0000 0.0380 0.9993
vn 0.9796 0.2009 -0.0000
vn 0.0000 0.0380 -0.9993
vn -0.9921 -0.1252 -0.0000
vn 0.9261 0.3772 -0.0000
vn -0.9509 -0.3094 -0.0000
vn 0.0284 0.0548 0.9981
vn 0.0218 0.0421 0.9989
vn 0.0235 0.0454 0.9987
vn 0.6593 -0.7519 -0.0000
vn 0.7936 -0.6084 -0.0000
vn 0.0284 0.0548 -0.9981
vn 0.0235 0.0454 -0.9987
vn 0.0218 0.0421 -0.9989
vn -0.5727 0.8197 -0.0000
vn -0.7319 0.6814 -0.0000
vn -0.4600 -0.8879 -0.0000
vn -0.4600 -0.8879 0.0000
vn 0.0175 0.0337 0.9993
vn 0.9623 -0.2722 -0.0000
vn 0.0175 0.0337 -0.9993
vn -0.9385 0.3452 -0.0000
vn 0.9958 -0.0911 -0.0000
vn -0.9867 0.1627 -0.0000
vn 0.0567 0.0244 0.9981
vn 0.0436 0.0188 0.9989
vn 0.0469 0.0202 0.9987
vn 0.0342 -0.9994 -0.0000
vn 0.2290 -0.9734 -0.0000
vn 0.0567 0.0244 -0.9981
vn 0.0469 0.0202 -0.9987
vn 0.0436 0.0188 -0.9989
vn 0.0757 0.9971 -0.0000
vn -0.1350 0.9908 -0.0000
vn -0.9182 -0.3960 -0.0000
vn -0.9182 -0.3960 0.0000
vn 0.0349 0.0151 0.9993
vn 0.5725 -0.8199 -0.0000
vn 0.0349 0.0151 -0.9993
vn -0.5079 0.8614 -0.0000
vn 0.7131 -0.7010 -0.0000
vn -0.6607 0.7506 -0.0000
# 54 vertex normals

vt 0.5000 1.0000 0.0000
vt 0.2500 0.5000 0.0000
vt 0.7500 0.5000 0.0000
vt 0.2309 0.5000 0.0000
vt 0.7309 0.5000 0.0000
vt 0.0000 1.0000 0.0000
vt 0.5000 0.5000 0.0000
vt 1.0000 1.0000 0.0000
vt 1.0000 0.0000 0.0000
vt 0.0000 0.0000 0.0000
vt 0.1250 0.2500 0.0000
vt 0.8750 0.2500 0.0000
vt 0.0963 0.2500 0.0000
vt 0.8463 0.2500 0.0000
vt -0.0383 0.0000 0.0000
vt 0.9617 0.0000 0.0000
# 16 texture coords

g Pyramid001
usemtl wire_027177027
s 4
f 1/1/1 2/2/2 3/3/3 
s 2
f 1/1/4 3/4/5 4/5/5 
s 16
f 1/1/6 4/2/7 5/3/8 
s 32
f 1/1/9 5/4/10 2/5/10 
s 8
f 6/6/11 7/7/11 8/8/11 
f 8/8/11 7/7/11 9/9/11 
f 9/9/11 7/7/11 10/10/11 
f 10/10/11 7/7/11 6/6/11 
s 4
f 11/11/12 12/12/13 3/3/3 2/2/2 
s 2
f 12/13/14 13/14/14 4/5/5 3/4/5 
s 16
f 4/2/7 13/11/15 14/12/15 5/3/8 
s 32
f 14/13/16 11/14/16 2/5/10 5/4/10 
s 4
f 6/10/13 8/9/13 12/12/13 11/11/12 
s 2
f 8/15/17 9/16/17 13/14/14 12/13/14 
s 16
f 13/11/15 9/10/15 10/9/15 14/12/15 
s 32
f 10/15/18 6/16/18 11/14/16 14/13/16 
s 4
f 15/1/19 16/2/20 17/3/21 
s 2
f 15/1/22 17/4/23 18/5/23 
s 16
f 15/1/24 18/2/25 19/3/26 
s 32
f 15/1/27 19/4/28 16/5/28 
s 8
f 20/6/29 21/7/29 22/8/29 
f 22/8/29 21/7/29 23/9/30 
f 23/9/30 21/7/29 24/10/30 
f 24/10/30 21/7/29 20/6/29 
s 4
f 25/11/31 26/12/31 17/3/21 16/2/20 
s 2
f 26/13/32 27/14/32 18/5/23 17/4/23 
s 16
f 18/2/25 27/11/33 28/12/33 19/3/26 
s 32
f 28/13/34 25/14/34 16/5/28 19/4/28 
s 4
f 20/10/31 22/9/31 26/12/31 25/11/31 
s 2
f 22/15/35 23/16/35 27/14/32 26/13/32 
s 16
f 27/11/33 23/10/33 24/9/33 28/12/33 
s 32
f 24/15/36 20/16/36 25/14/34 28/13/34 
s 4
f 29/1/37 30/2/38 31/3/39 
s 2
f 29/1/40 31/4/41 32/5/41 
s 16
f 29/1/42 32/2/43 33/3/44 
s 32
f 29/1/45 33/4/46 30/5/46 
s 8
f 34/6/47 35/7/47 36/8/47 
f 36/8/47 35/7/47 37/9/48 
f 37/9/48 35/7/47 38/10/48 
f 38/10/48 35/7/47 34/6/47 
s 4
f 39/11/49 40/12/49 31/3/39 30/2/38 
s 2
f 40/13/50 41/14/50 32/5/41 31/4/41 
s 16
f 32/2/43 41/11/51 42/12/51 33/3/44 
s 32
f 42/13/52 39/14/52 30/5/46 33/4/46 
s 4
f 34/10/49 36/9/49 40/12/49 39/11/49 
s 2
f 36/15/53 37/16/53 41/14/50 40/13/50 
s 16
f 41/11/51 37/10/51 38/9/51 42/12/51 
s 32
f 38/15/54 34/16/54 39/14/52 42/13/52 
# 24 polygons - 24 triangles

#
# object Box001
#

v  -19.5211 3.6152 -3.1973
v  -12.9244 6.9123 -3.1973
v  -12.9244 6.9123 -3.0720
v  -12.9244 6.9123 -2.9467
v  -19.5211 3.6152 -2.9467
v  -21.3239 20.3887 -3.0720
v  -21.3239 20.3887 -3.1973
v  -27.1158 9.0849 -3.1973
v  -21.3239 20.3887 -2.9467
v  -27.1158 9.0849 -2.9467
v  -17.1242 13.6505 -2.9467
v  -27.4606 -1.9571 -2.9467
v  4.7018 8.7358 -3.1973
v  -8.1221 16.1485 -3.1653
v  -8.1221 16.1485 -2.9146
v  4.7018 8.7358 -2.9467
v  -8.6872 8.1652 -3.1973
v  -12.0504 16.6844 -3.1973
v  -8.6872 8.1652 -3.0720
v  -15.4135 25.2037 -2.9467
v  -15.4135 25.2037 -3.0720
v  -8.6872 8.1652 -2.9467
v  -12.0504 16.6844 -2.9467
v  -17.1242 13.6505 -3.1973
v  -11.2918 28.9335 -2.8826
v  -11.2918 28.9335 -3.1332
v  -15.4135 25.2037 -3.1973
v  -26.9242 9.8114 -3.1973
v  -24.2783 16.0717 -3.1973
v  -24.2783 16.0717 -3.0720
v  -24.2783 16.0717 -2.9467
v  -26.9242 9.8114 -2.9467
v  -35.2804 22.9531 -3.0720
v  -35.2804 22.9531 -3.1973
v  -35.2965 10.2518 -3.1973
v  -35.2804 22.9531 -2.9467
v  -35.2965 10.2518 -2.9467
v  -31.3338 16.2273 -2.9467
v  -30.5808 0.2614 -2.9467
v  -11.5679 28.7874 -3.1973
v  -23.6054 29.2592 -3.1653
v  -23.6054 29.2592 -2.9146
v  -11.5679 28.7874 -2.9467
v  -21.4037 20.2828 -3.1973
v  -26.4212 23.9127 -3.1973
v  -21.4037 20.2828 -3.0720
v  -32.2071 29.9296 -2.9467
v  -32.2071 29.9296 -3.0720
v  -21.4037 20.2828 -2.9467
v  -26.4212 23.9127 -2.9467
v  -31.3338 16.2273 -3.1973
v  -30.2331 35.1260 -2.8826
v  -30.2331 35.1260 -3.1332
v  -32.2071 29.9296 -3.1973
v  -13.9125 -5.6885 -3.1973
v  -7.4018 -6.3844 -3.1973
v  -7.4018 -6.3844 -3.0720
v  -7.4018 -6.3844 -2.9467
v  -13.9125 -5.6885 -2.9467
v  -9.7723 7.7287 -3.0720
v  -9.7723 7.7287 -3.1973
v  -19.3721 3.2515 -3.1973
v  -9.7723 7.7287 -2.9467
v  -19.3721 3.2515 -2.9467
v  -11.5445 -0.5628 -2.9467
v  -26.0826 -4.1158 -2.9467
v  3.1280 -7.3785 -3.1973
v  0.6502 0.7744 -3.1653
v  0.6502 0.7744 -2.9146
v  3.1280 -7.3785 -2.9467
v  -1.5950 -6.7480 -3.1973
v  -4.7290 0.1678 -3.1973
v  -1.5950 -6.7480 -3.0720
v  -2.6630 8.6021 -2.9467
v  -2.6630 8.6021 -3.0720
v  -1.5950 -6.7480 -2.9467
v  -4.7290 0.1678 -2.9467
v  -11.5445 -0.5628 -3.1973
v  4.4745 8.7191 -2.8826
v  4.4745 8.7191 -3.1332
v  -2.6630 8.6021 -3.1973
# 81 vertices

vn 0.4471 -0.8945 -0.0000
vn 0.3667 -0.9303 -0.0000
vn -0.7774 0.6291 -0.0000
vn -0.8900 0.4560 -0.0000
vn 0.0000 0.0000 1.0000
vn 0.5004 0.8658 -0.0000
vn 0.7988 0.6016 -0.0000
vn 0.7996 0.6006 -0.0000
vn 0.0011 0.0022 -1.0000
vn 0.0046 0.0021 -1.0000
vn 0.0062 0.0040 -1.0000
vn -0.0002 0.0040 -1.0000
vn -0.4593 -0.6377 -0.6184
vn 0.0000 0.0000 -1.0000
vn -0.4961 -0.6889 -0.5285
vn -0.5844 -0.8115 -0.0000
vn 0.1643 -0.9864 -0.0000
vn -0.6516 0.7586 -0.0000
vn -0.6515 0.7586 -0.0000
vn -0.0011 -0.0022 1.0000
vn -0.0046 -0.0021 1.0000
vn 0.0426 -0.9991 -0.0000
vn -0.6710 0.7415 -0.0000
vn -0.6514 0.7587 -0.0000
vn 0.0002 -0.0040 1.0000
vn -0.0062 -0.0040 1.0000
vn 0.9706 0.2406 -0.0000
vn 0.0069 0.0027 -1.0000
vn 0.0107 0.0046 -0.9999
vn -0.0069 -0.0027 1.0000
vn -0.0107 -0.0046 0.9999
vn 0.9211 -0.3893 -0.0000
vn 0.8779 -0.4789 -0.0000
vn -0.9784 0.2066 -0.0000
vn -1.0000 0.0013 -0.0000
vn 0.0392 0.9992 -0.0000
vn 0.3720 0.9282 -0.0000
vn 0.3733 0.9277 -0.0000
vn -0.0002 0.0018 -1.0000
vn 0.0015 0.0026 -1.0000
vn -0.0001 0.0046 -1.0000
vn -0.0025 0.0029 -1.0000
vn -0.0410 -0.7795 -0.6250
vn -0.0433 -0.8236 -0.5656
vn -0.0525 -0.9986 -0.0000
vn 0.7462 -0.6657 -0.0000
vn -0.9253 0.3792 -0.0000
vn -0.9253 0.3793 -0.0000
vn 0.0002 -0.0018 1.0000
vn -0.0015 -0.0026 1.0000
vn 0.6541 -0.7564 -0.0000
vn -0.9348 0.3551 -0.0000
vn 0.0025 -0.0029 1.0000
vn 0.0001 -0.0046 1.0000
vn 0.6628 0.7488 -0.0000
vn 0.0058 0.0056 -1.0000
vn 0.0054 0.0075 -1.0000
vn -0.0058 -0.0056 1.0000
vn -0.0054 -0.0075 1.0000
vn -0.1063 -0.9943 -0.0000
vn -0.0844 -0.9964 -0.0000
vn -0.2757 0.9612 -0.0000
vn -0.4227 0.9063 -0.0000
vn 0.9568 0.2908 -0.0000
vn 0.9971 -0.0758 -0.0000
vn 0.9970 -0.0776 -0.0000
vn 0.0015 0.0024 -1.0000
vn 0.0026 0.0004 -1.0000
vn 0.0050 0.0021 -1.0000
vn 0.0005 0.0041 -1.0000
vn -0.7417 -0.4530 -0.4947
vn -0.6602 -0.4031 -0.6338
vn -0.8534 -0.5212 -0.0000
vn -0.0975 -0.9952 -0.0000
vn -0.0691 0.9976 -0.0000
vn -0.0693 0.9976 -0.0000
vn -0.0015 -0.0024 1.0000
vn -0.0026 -0.0004 1.0000
vn -0.1323 -0.9912 -0.0000
vn -0.0164 0.9999 -0.0000
vn -0.0694 0.9976 -0.0000
vn -0.0005 -0.0041 1.0000
vn -0.0050 -0.0021 1.0000
vn 0.9010 -0.4337 -0.0000
vn 0.0054 -0.0013 -1.0000
vn 0.0079 -0.0010 -1.0000
vn -0.0054 0.0013 1.0000
vn -0.0079 0.0010 1.0000
# 88 vertex normals

vt 1.0000 1.0000 0.0000
vt 0.5000 1.0000 0.0000
vt 0.5000 0.5000 0.0000
vt 0.5000 0.0000 0.0000
vt 1.0000 0.0000 0.0000
vt 0.0000 1.0000 0.0000
vt 0.0000 0.0000 0.0000
vt 0.0000 0.5000 0.0000
vt 1.0000 0.5000 0.0000
vt 0.2500 0.0000 0.0000
vt 0.2500 0.5000 0.0000
vt 0.2500 1.0000 0.0000
vt 0.7500 0.0000 0.0000
vt 0.7500 0.5000 0.0000
vt 0.7500 1.0000 0.0000
# 15 texture coords

g Box001
usemtl wire_166229229
s 2
f 43/17/55 44/18/56 45/19/56 46/20/56 
f 47/21/55 43/17/55 46/20/56 
s 4
f 48/19/57 49/18/57 50/22/58 51/20/57 
f 52/23/58 51/20/57 50/22/58 
s 8
f 53/19/59 54/24/59 47/23/59 46/20/59 
s 16
f 55/21/60 56/25/61 57/24/62 58/23/60 
s 32
f 59/26/63 60/27/64 56/24/65 55/23/66 
s 64
f 47/21/67 54/25/68 52/17/69 43/23/70 
f 43/23/70 52/17/69 50/22/70 
s 2
f 59/28/71 61/27/71 45/19/56 44/18/56 
s 4
f 62/29/72 63/30/73 48/19/57 51/20/57 
s 8
f 46/20/59 64/29/74 65/30/75 53/19/59 
s 32
f 43/21/68 50/17/68 49/18/68 66/19/68 
f 44/20/68 43/21/68 66/19/68 
f 44/20/68 66/19/68 60/27/64 59/26/63 
s 2
f 55/22/76 58/23/76 64/26/71 61/27/71 
f 59/28/71 55/22/76 61/27/71 
s 4
f 67/21/77 68/17/77 69/31/78 63/30/73 
f 62/29/72 67/21/77 63/30/73 
s 8
f 64/29/74 58/21/79 57/25/80 65/30/75 
f 53/19/59 51/18/59 52/22/59 54/24/59 
s 16
f 68/17/81 67/22/81 57/24/62 56/25/61 
s 32
f 60/27/64 69/28/82 68/22/83 56/24/65 
s 2
f 64/26/71 46/20/56 45/19/56 61/27/71 
s 4
f 69/31/78 49/18/57 48/19/57 63/30/73 
s 8
f 65/30/75 62/31/84 51/18/59 53/19/59 
s 32
f 49/18/68 69/28/82 60/27/64 66/19/68 
s 8
f 67/17/85 62/31/84 65/30/75 57/25/80 
s 2
f 70/17/86 71/18/87 72/19/87 73/20/87 
f 74/21/86 70/17/86 73/20/87 
s 4
f 75/19/88 76/18/88 77/22/89 78/20/88 
f 79/23/89 78/20/88 77/22/89 
s 8
f 80/19/59 81/24/59 74/23/59 73/20/59 
s 16
f 82/21/90 83/25/91 84/24/92 85/23/90 
s 32
f 86/26/93 87/27/94 83/24/95 82/23/96 
s 64
f 74/21/97 81/25/68 79/17/98 70/23/99 
f 70/23/99 79/17/98 77/22/99 
s 2
f 86/28/100 88/27/100 72/19/87 71/18/87 
s 4
f 89/29/101 90/30/102 75/19/88 78/20/88 
s 8
f 73/20/59 91/29/103 92/30/104 80/19/59 
s 32
f 77/17/68 76/18/68 93/19/68 70/21/68 
f 71/20/68 70/21/68 93/19/68 
f 71/20/68 93/19/68 87/27/94 86/26/93 
s 2
f 82/22/105 85/23/105 91/26/100 88/27/100 
f 86/28/100 82/22/105 88/27/100 
s 4
f 94/21/106 95/17/106 96/31/102 90/30/102 
f 89/29/101 94/21/106 90/30/102 
s 8
f 91/29/103 85/21/107 84/25/108 92/30/104 
f 80/19/59 78/18/59 79/22/59 81/24/59 
s 16
f 95/17/109 94/22/109 84/24/92 83/25/91 
s 32
f 87/27/94 96/28/110 95/22/111 83/24/95 
s 2
f 91/26/100 73/20/87 72/19/87 88/27/100 
s 4
f 96/31/102 76/18/88 75/19/88 90/30/102 
s 8
f 92/30/104 89/31/112 78/18/59 80/19/59 
s 32
f 76/18/68 96/28/110 87/27/94 93/19/68 
s 8
f 94/17/113 89/31/112 92/30/104 84/25/108 
s 2
f 97/17/114 98/18/115 99/19/115 100/20/115 
f 101/21/114 97/17/114 100/20/115 
s 4
f 102/19/116 103/18/116 104/22/117 105/20/116 
f 106/23/117 105/20/116 104/22/117 
s 8
f 107/19/59 108/24/59 101/23/59 100/20/59 
s 16
f 109/21/118 110/25/119 111/24/120 112/23/118 
s 32
f 113/26/121 114/27/122 110/24/123 109/23/124 
s 64
f 101/21/125 108/25/68 106/17/126 97/23/127 
f 97/23/127 106/17/126 104/22/127 
s 2
f 113/28/128 115/27/128 99/19/115 98/18/115 
s 4
f 116/29/129 117/30/130 102/19/116 105/20/116 
s 8
f 100/20/59 118/29/131 119/30/132 107/19/59 
s 32
f 97/21/68 104/17/68 103/18/68 120/19/68 
f 98/20/68 97/21/68 120/19/68 
f 98/20/68 120/19/68 114/27/122 113/26/121 
s 2
f 109/22/133 112/23/133 118/26/128 115/27/128 
f 113/28/128 109/22/133 115/27/128 
s 4
f 121/21/134 122/17/134 123/31/135 117/30/130 
f 116/29/129 121/21/134 117/30/130 
s 8
f 118/29/131 112/21/136 111/25/137 119/30/132 
f 107/19/59 105/18/59 106/22/59 108/24/59 
s 16
f 122/17/138 121/22/138 111/24/120 110/25/119 
s 32
f 114/27/122 123/28/139 122/22/140 110/24/123 
s 2
f 118/26/128 100/20/115 99/19/115 115/27/128 
s 4
f 123/31/135 103/18/116 102/19/116 117/30/130 
s 8
f 119/30/132 116/31/141 105/18/59 107/19/59 
s 32
f 103/18/68 123/28/139 114/27/122 120/19/68 
s 8
f 121/17/142 116/31/141 119/30/132 111/25/137 
# 66 polygons - 18 triangles

